<svg xmlns="http://www.w3.org/2000/svg" width="1280" height="820" viewBox="0 0 1280 820" role="img" aria-labelledby="title desc">
  <title id="title">Bloomfield website screen preview</title>
  <desc id="desc">A fictional full-page website preview placeholder.</desc>
  <rect width="1280" height="820" fill="#fff3f6"/>
  <rect x="92" y="70" width="1096" height="680" rx="34" fill="#ffffff" stroke="#e5e7eb" stroke-width="3"/>
  <rect x="92" y="70" width="1096" height="88" rx="34" fill="#ffffff"/>
  <circle cx="152" cy="114" r="22" fill="#e78aa4"/>
  <rect x="188" y="102" width="210" height="22" rx="11" fill="#315c46"/>
  <rect x="842" y="103" width="70" height="16" rx="8" fill="#9ca3af"/>
  <rect x="936" y="103" width="70" height="16" rx="8" fill="#9ca3af"/>
  <rect x="1030" y="96" width="104" height="30" rx="15" fill="#e78aa4"/>
  <rect x="142" y="220" width="420" height="54" rx="16" fill="#315c46"/>
  <rect x="142" y="306" width="480" height="18" rx="9" fill="#6b7280" opacity="0.75"/>
  <rect x="142" y="340" width="390" height="18" rx="9" fill="#9ca3af"/>
  <rect x="142" y="404" width="164" height="48" rx="24" fill="#e78aa4"/>
  <rect x="690" y="218" width="360" height="260" rx="28" fill="#315c46" opacity="0.95"/>
  <rect x="730" y="266" width="250" height="24" rx="12" fill="#ffffff" opacity="0.86"/>
  <rect x="730" y="318" width="208" height="16" rx="8" fill="#ffffff" opacity="0.55"/>
  <rect x="730" y="356" width="250" height="16" rx="8" fill="#ffffff" opacity="0.55"/>
  <rect x="142" y="558" width="280" height="118" rx="22" fill="#f3f4f6"/>
  <rect x="480" y="558" width="280" height="118" rx="22" fill="#f3f4f6"/>
  <rect x="818" y="558" width="280" height="118" rx="22" fill="#f3f4f6"/>
</svg>