<svg width="1000" height="760" viewBox="0 0 1000 760" xmlns="http://www.w3.org/2000/svg"><rect width="1000" height="760" fill="#ede8f6"/><rect x="80" y="60" width="840" height="640" rx="34" fill="#fff" stroke="#cabee5" stroke-width="4"/><text x="130" y="140" font-family="Arial" font-size="38" font-weight="700" fill="#2c2442">Creative Home Base</text><rect x="130" y="180" width="420" height="20" rx="10" fill="#7d6aa5" opacity=".45"/><rect x="130" y="220" width="320" height="20" rx="10" fill="#7d6aa5" opacity=".3"/><rect x="130" y="280" width="190" height="54" rx="27" fill="#7d6aa5"/><rect x="350" y="280" width="160" height="54" rx="27" fill="#f4f0fb" stroke="#cabee5"/><rect x="600" y="155" width="210" height="220" rx="28" fill="#f4f0fb"/><circle cx="705" cy="250" r="58" fill="#7d6aa5" opacity=".78"/><g transform="translate(130 435)"><rect width="220" height="125" rx="24" fill="#f8f5fc" stroke="#cabee5"/><rect x="26" y="28" width="120" height="16" rx="8" fill="#2c2442" opacity=".75"/><rect x="26" y="58" width="160" height="12" rx="6" fill="#7d6aa5" opacity=".35"/></g><g transform="translate(390 435)"><rect width="220" height="125" rx="24" fill="#f8f5fc" stroke="#cabee5"/><rect x="26" y="28" width="135" height="16" rx="8" fill="#2c2442" opacity=".75"/><rect x="26" y="58" width="150" height="12" rx="6" fill="#7d6aa5" opacity=".35"/></g><g transform="translate(650 435)"><rect width="220" height="125" rx="24" fill="#f8f5fc" stroke="#cabee5"/><rect x="26" y="28" width="96" height="16" rx="8" fill="#2c2442" opacity=".75"/><rect x="26" y="58" width="156" height="12" rx="6" fill="#7d6aa5" opacity=".35"/></g></svg>
