<svg width="1000" height="760" viewBox="0 0 1000 760" xmlns="http://www.w3.org/2000/svg"><rect width="1000" height="760" fill="#e6f2ef"/><rect x="80" y="60" width="840" height="640" rx="34" fill="#fff" stroke="#b9d8cf" stroke-width="4"/><text x="130" y="140" font-family="Arial" font-size="38" font-weight="700" fill="#24433d">Wellness Practice Starter</text><rect x="130" y="180" width="455" height="20" rx="10" fill="#6c958a" opacity=".45"/><rect x="130" y="220" width="340" height="20" rx="10" fill="#6c958a" opacity=".3"/><rect x="130" y="280" width="220" height="54" rx="27" fill="#6c958a"/><rect x="380" y="280" width="165" height="54" rx="27" fill="#eff8f5" stroke="#b9d8cf"/><rect x="640" y="155" width="190" height="220" rx="95" fill="#eff8f5"/><path d="M735 210c-45 44-44 85 0 124 44-39 45-80 0-124z" fill="#6c958a" opacity=".78"/><g transform="translate(130 435)"><rect width="220" height="125" rx="24" fill="#f5fbf9" stroke="#b9d8cf"/><rect x="26" y="28" width="120" height="16" rx="8" fill="#24433d" opacity=".75"/><rect x="26" y="58" width="160" height="12" rx="6" fill="#6c958a" opacity=".35"/></g><g transform="translate(390 435)"><rect width="220" height="125" rx="24" fill="#f5fbf9" stroke="#b9d8cf"/><rect x="26" y="28" width="135" height="16" rx="8" fill="#24433d" opacity=".75"/><rect x="26" y="58" width="150" height="12" rx="6" fill="#6c958a" opacity=".35"/></g><g transform="translate(650 435)"><rect width="220" height="125" rx="24" fill="#f5fbf9" stroke="#b9d8cf"/><rect x="26" y="28" width="96" height="16" rx="8" fill="#24433d" opacity=".75"/><rect x="26" y="58" width="156" height="12" rx="6" fill="#6c958a" opacity=".35"/></g></svg>
